.
..............................Site Info...........................

 -   http://www.scenetime.com  *_*   

SceneTime is going to Close sign up on march/1, hurry up! get in before the doors are closed.

     We care to share . Join us on  http://www.scenetime.com 

    Be the first to get new release at  http://www.scenetime.com

        Seed back for speed


...................................NFO:.................................................Safe House 2012 TS V2 READNFO XviD - SiC
 
http://www.imdb.com/title/tt1599348/

Video
ID                               : 0
Format                           : MPEG-4 Visual
Format profile                   : Advanced Simple@L5
Format settings, BVOP            : 2
Format settings, QPel            : No
Format settings, GMC             : No warppoints
Format settings, Matrix          : Default (H.263)
Muxing mode                      : Packed bitstream
Codec ID                         : XVID
Codec ID/Hint                    : XviD
Duration                         : 1h 49mn
Bit rate                         : 1 651 Kbps
Width                            : 720 pixels
Height                           : 252 pixels
Display aspect ratio             : 2.857
Frame rate                       : 25.000 fps
Color space                      : YUV
Chroma subsampling               : 4:2:0
Bit depth                        : 8 bits
Scan type                        : Progressive
Compression mode                 : Lossy
Bits/(Pixel*Frame)               : 0.364
Stream size                      : 1.27 GiB (92%)
Writing library                  : XviD 64

Audio
ID                               : 1
Format                           : MPEG Audio
Format version                   : Version 1
Format profile                   : Layer 3
Mode                             : Joint stereo
Mode extension                   : MS Stereo
Codec ID                         : 55
Codec ID/Hint                    : MP3
Duration                         : 1h 49mn
Bit rate mode                    : Constant
Bit rate                         : 128 Kbps
Channel(s)                       : 2 channels
Sampling rate                    : 44.1 KHz
Compression mode                 : Lossy
Stream size                      : 100 MiB (7%)
Alignment                        : Split accross interleaves
Interleave, duration             : 40 ms (1.00 video frame)

Sources - 
V: INFERNO Thanks
A: LittlebirD Thanks

Video very nice spanish subs from time ot time
FULL LiNE, nothing cut or missing
ENGLISH subs hardcoded when needed

[img]http://i.imgur.com/WVDDJ.png[/img]
[img]http://i.imgur.com/b08F4.png[/img]
[img]http://i.imgur.com/xnD17.png[/img]
[img]http://i.imgur.com/rdH5t.png[/img]
[img]http://i.imgur.com/dWAwg.png[/img]
[img]http://i.imgur.com/4W5w1.png[/img]